<?xml version="1.0" standalone="no"?>
<!DOCTYPE svg PUBLIC "-//W3C//DTD SVG 20010904//EN"
 "http://www.w3.org/TR/2001/REC-SVG-20010904/DTD/svg10.dtd">
<svg version="1.0" xmlns="http://www.w3.org/2000/svg"
 width="354.000000pt" height="360.000000pt" viewBox="0 0 354.000000 360.000000"
 preserveAspectRatio="xMidYMid meet">

<g transform="translate(0.000000,360.000000) scale(0.100000,-0.100000)"
fill="#000000" stroke="none">
<path d="M1649 3491 c-76 -47 -84 -77 -82 -271 2 -91 8 -298 16 -461 12 -280
14 -297 36 -327 30 -43 70 -62 130 -62 39 0 56 6 81 26 51 43 58 68 65 230 4
82 9 172 11 199 8 110 16 544 10 569 -9 36 -64 96 -103 112 -54 23 -113 18
-164 -15z"/>
<path d="M930 3298 c-61 -42 -75 -71 -75 -156 l0 -77 183 -375 c101 -206 193
-386 205 -399 71 -77 193 -62 240 29 29 56 17 114 -63 315 -40 99 -88 223
-107 275 -43 121 -122 308 -141 338 -45 68 -175 95 -242 50z"/>
<path d="M2363 3291 c-52 -38 -67 -60 -99 -146 -14 -38 -54 -142 -89 -230
-157 -398 -185 -477 -185 -528 0 -94 66 -155 157 -144 81 9 102 37 226 292
276 569 267 549 267 606 0 107 -71 179 -177 179 -50 0 -66 -5 -100 -29z"/>
<path d="M415 2864 c-46 -24 -63 -43 -81 -90 -19 -49 -14 -115 10 -162 15 -27
591 -608 633 -637 34 -24 114 -30 149 -12 64 33 94 104 74 176 -12 44 -99 154
-320 406 -25 28 -91 106 -148 173 -65 77 -118 130 -142 142 -48 24 -133 26
-175 4z"/>
<path d="M2908 2866 c-49 -26 -66 -41 -121 -109 -30 -36 -79 -94 -110 -129
-199 -229 -372 -435 -383 -457 -26 -49 -27 -88 -5 -134 36 -74 119 -105 194
-73 40 17 639 609 661 653 22 44 21 139 -3 183 -26 50 -83 80 -151 80 -30 0
-67 -7 -82 -14z"/>
<path d="M228 2064 c-15 -8 -32 -23 -38 -33 -10 -21 -15 -1824 -5 -1842 4 -5
111 -9 256 -9 l250 0 15 35 c12 30 14 115 14 526 -1 270 2 494 5 497 3 3 188
-176 410 -398 l405 -405 172 -3 c95 -2 188 0 207 3 29 6 102 73 433 403 220
218 405 397 411 397 9 0 13 -124 14 -514 2 -372 6 -517 14 -527 10 -12 57 -14
263 -12 l251 3 3 913 c2 811 0 915 -13 936 -28 42 -60 48 -247 44 -147 -3
-179 -6 -216 -23 -29 -14 -195 -171 -548 -520 -278 -275 -512 -504 -520 -508
-8 -5 -24 -5 -37 -2 -12 4 -251 236 -532 515 -596 594 -519 540 -779 540 -123
-1 -168 -4 -188 -16z"/>
</g>
</svg>
