<?xml version="1.0" standalone="no"?>
<!DOCTYPE svg PUBLIC "-//W3C//DTD SVG 20010904//EN"
 "http://www.w3.org/TR/2001/REC-SVG-20010904/DTD/svg10.dtd">
<svg version="1.0" xmlns="http://www.w3.org/2000/svg"
 width="1578.000000pt" height="613.000000pt" viewBox="0 0 1578.000000 613.000000"
 preserveAspectRatio="xMidYMid meet">

<g transform="translate(0.000000,613.000000) scale(0.100000,-0.100000)"
fill="#000000" stroke="none">
<path d="M0 3065 l0 -3065 7890 0 7890 0 0 3065 0 3065 -7890 0 -7890 0 0
-3065z m14390 2780 c0 -20 5 -25 25 -25 20 0 25 -5 25 -25 0 -20 5 -25 25 -25
23 0 25 -3 25 -50 0 -47 2 -50 25 -50 l25 0 0 -1390 0 -1390 -25 0 c-24 0 -25
-2 -25 -75 0 -73 -1 -75 -25 -75 -20 0 -25 -5 -25 -25 0 -23 -3 -25 -50 -25
-47 0 -50 -2 -50 -25 l0 -25 -105 0 -105 0 0 25 c0 20 -5 25 -25 25 -20 0 -25
5 -25 25 0 20 -5 25 -25 25 -20 0 -25 5 -25 25 0 20 -5 25 -25 25 l-25 0 0
1465 0 1465 25 0 c23 0 25 3 25 50 0 47 2 50 25 50 20 0 25 5 25 25 l0 25 155
0 155 0 0 -25z m-9610 -400 c0 -24 2 -25 75 -25 73 0 75 -1 75 -25 0 -24 3
-25 55 -25 52 0 55 -1 55 -25 0 -20 5 -25 25 -25 20 0 25 -5 25 -25 0 -23 3
-25 50 -25 47 0 50 -2 50 -25 0 -23 3 -25 50 -25 47 0 50 2 50 25 0 23 3 25
50 25 47 0 50 2 50 25 0 23 3 25 50 25 47 0 50 2 50 25 0 23 3 25 50 25 47 0
50 2 50 25 0 23 3 25 50 25 47 0 50 2 50 25 l0 25 330 0 330 0 0 -25 c0 -24 2
-25 75 -25 73 0 75 -1 75 -25 0 -23 3 -25 50 -25 47 0 50 -2 50 -25 0 -23 3
-25 50 -25 47 0 50 -2 50 -25 0 -20 5 -25 25 -25 20 0 25 -5 25 -25 0 -24 3
-25 55 -25 54 0 55 0 55 -30 0 -25 4 -30 25 -30 20 0 25 -5 25 -25 0 -20 5
-25 25 -25 23 0 25 -3 25 -50 0 -47 2 -50 25 -50 20 0 25 -5 25 -25 0 -20 5
-25 25 -25 23 0 25 -3 25 -50 0 -47 2 -50 25 -50 24 0 25 -2 25 -75 0 -73 1
-75 25 -75 l25 0 0 -935 0 -935 -25 0 c-23 0 -25 -3 -25 -50 0 -47 -2 -50 -25
-50 -20 0 -25 -5 -25 -25 0 -20 -5 -25 -25 -25 -20 0 -25 -5 -25 -25 l0 -25
-155 0 -155 0 0 25 c0 23 -3 25 -50 25 -47 0 -50 2 -50 25 0 20 -5 25 -25 25
-23 0 -25 3 -25 50 0 47 -2 50 -25 50 l-25 0 0 885 0 885 -25 0 c-23 0 -25 3
-25 50 0 47 -2 50 -25 50 -20 0 -25 5 -25 25 0 20 -5 25 -25 25 -20 0 -25 5
-25 25 0 23 -3 25 -50 25 -47 0 -50 2 -50 25 l0 25 -205 0 -205 0 0 -25 c0
-20 -5 -25 -25 -25 -20 0 -25 -5 -25 -25 0 -23 -3 -25 -50 -25 l-50 0 0 -50
c0 -47 -2 -50 -25 -50 -23 0 -25 -3 -25 -50 0 -47 -2 -50 -25 -50 l-25 0 0
-860 0 -860 -25 0 c-23 0 -25 -3 -25 -50 0 -47 -2 -50 -25 -50 -20 0 -25 -5
-25 -25 0 -23 -3 -25 -50 -25 -47 0 -50 -2 -50 -25 l0 -25 -125 0 -125 0 0 25
c0 23 -3 25 -50 25 -47 0 -50 2 -50 25 0 21 -5 25 -30 25 -25 0 -30 4 -30 25
0 20 -5 25 -25 25 l-25 0 0 835 0 835 -25 0 c-24 0 -25 2 -25 75 0 73 -1 75
-25 75 -23 0 -25 3 -25 50 0 47 -2 50 -25 50 -20 0 -25 5 -25 25 0 20 -5 25
-25 25 -20 0 -25 5 -25 25 0 23 -3 25 -50 25 -47 0 -50 2 -50 25 l0 25 -200 0
-200 0 0 -25 c0 -20 -5 -25 -25 -25 -20 0 -25 -5 -25 -25 0 -20 -5 -25 -25
-25 -20 0 -25 -5 -25 -25 0 -21 -5 -25 -30 -25 -25 0 -30 -4 -30 -25 0 -20 -5
-25 -25 -25 -23 0 -25 -3 -25 -50 0 -47 -2 -50 -25 -50 l-25 0 0 -860 0 -860
-25 0 c-23 0 -25 -3 -25 -50 0 -47 -2 -50 -25 -50 -20 0 -25 -5 -25 -25 0 -23
-3 -25 -50 -25 -47 0 -50 -2 -50 -25 l0 -25 -150 0 -150 0 0 25 c0 20 -5 25
-25 25 -20 0 -25 5 -25 25 0 20 -5 25 -25 25 -24 0 -25 2 -25 75 0 73 -1 75
-25 75 l-25 0 0 810 0 810 25 0 25 0 0 150 0 150 25 0 c23 0 25 3 25 50 0 47
2 50 25 50 23 0 25 3 25 50 0 47 2 50 25 50 20 0 25 5 25 25 0 20 5 25 25 25
20 0 25 5 25 25 0 20 5 25 25 25 20 0 25 5 25 25 0 20 5 25 25 25 21 0 25 5
25 30 0 25 4 30 25 30 20 0 25 5 25 25 0 20 5 25 25 25 20 0 25 5 25 25 0 23
3 25 50 25 47 0 50 2 50 25 0 23 3 25 50 25 47 0 50 2 50 25 0 25 1 25 80 25
79 0 80 0 80 25 l0 25 325 0 325 0 0 -25z m4700 0 c0 -25 1 -25 80 -25 79 0
80 0 80 -25 0 -24 2 -25 75 -25 73 0 75 -1 75 -25 0 -23 3 -25 50 -25 47 0 50
-2 50 -25 0 -23 3 -25 50 -25 47 0 50 -2 50 -25 0 -20 5 -25 25 -25 21 0 25
-5 25 -30 0 -25 4 -30 25 -30 20 0 25 -5 25 -25 0 -20 5 -25 25 -25 20 0 25
-5 25 -25 0 -20 5 -25 25 -25 20 0 25 -5 25 -25 0 -20 5 -25 25 -25 24 0 25
-2 25 -75 0 -73 -1 -75 -25 -75 -23 0 -25 -3 -25 -50 0 -47 -2 -50 -25 -50
-20 0 -25 -5 -25 -25 l0 -25 -125 0 -125 0 0 25 c0 20 -5 25 -25 25 -20 0 -25
5 -25 25 0 20 -5 25 -25 25 -20 0 -25 5 -25 25 0 23 -3 25 -50 25 -47 0 -50 2
-50 25 0 23 -3 25 -50 25 -47 0 -50 2 -50 25 0 25 -1 25 -80 25 -79 0 -80 0
-80 25 l0 25 -200 0 -200 0 0 -25 0 -25 -100 0 -100 0 0 -25 c0 -23 -3 -25
-50 -25 -47 0 -50 -2 -50 -25 0 -20 -5 -25 -25 -25 -20 0 -25 -5 -25 -25 0
-24 -3 -25 -55 -25 -52 0 -55 -1 -55 -25 0 -20 -5 -25 -25 -25 -20 0 -25 -5
-25 -25 0 -20 -5 -25 -25 -25 -20 0 -25 -5 -25 -25 0 -20 -5 -25 -25 -25 -20
0 -25 -5 -25 -25 0 -20 -5 -25 -25 -25 -23 0 -25 -3 -25 -50 0 -47 -2 -50 -25
-50 -23 0 -25 -3 -25 -50 0 -47 -2 -50 -25 -50 -24 0 -25 -2 -25 -75 0 -73 -1
-75 -25 -75 l-25 0 0 -255 0 -255 25 0 c24 0 25 -2 25 -75 0 -73 1 -75 25 -75
23 0 25 -3 25 -50 0 -47 2 -50 25 -50 23 0 25 -3 25 -50 0 -47 2 -50 25 -50
20 0 25 -5 25 -25 0 -20 5 -25 25 -25 20 0 25 -5 25 -25 0 -20 5 -25 25 -25
21 0 25 -5 25 -30 0 -25 4 -30 25 -30 20 0 25 -5 25 -25 0 -24 3 -25 55 -25
52 0 55 -1 55 -25 0 -20 5 -25 25 -25 20 0 25 -5 25 -25 0 -23 3 -25 50 -25
47 0 50 -2 50 -25 l0 -25 100 0 100 0 0 -25 0 -25 200 0 200 0 0 25 c0 25 1
25 80 25 79 0 80 0 80 25 0 23 3 25 50 25 47 0 50 2 50 25 0 23 3 25 50 25 47
0 50 2 50 25 0 20 5 25 25 25 20 0 25 5 25 25 0 20 5 25 25 25 21 0 25 5 25
30 l0 30 150 0 150 0 0 -55 c0 -52 1 -55 25 -55 l25 0 0 -100 0 -100 -25 0
c-20 0 -25 -5 -25 -25 0 -20 -5 -25 -25 -25 -20 0 -25 -5 -25 -25 0 -20 -5
-25 -25 -25 -20 0 -25 -5 -25 -25 0 -20 -5 -25 -25 -25 -20 0 -25 -5 -25 -25
0 -20 -5 -25 -25 -25 -20 0 -25 -5 -25 -25 0 -23 -3 -25 -50 -25 -47 0 -50 -2
-50 -25 0 -23 -3 -25 -50 -25 -47 0 -50 -2 -50 -25 0 -23 -3 -25 -50 -25 -47
0 -50 -2 -50 -25 l0 -25 -105 0 -105 0 0 -25 0 -25 -300 0 -300 0 0 25 0 25
-100 0 -100 0 0 25 c0 25 -1 25 -80 25 -79 0 -80 0 -80 25 0 23 -3 25 -50 25
-47 0 -50 2 -50 25 0 20 -5 25 -25 25 -20 0 -25 5 -25 25 0 23 -3 25 -50 25
-47 0 -50 2 -50 25 0 20 -5 25 -25 25 -20 0 -25 5 -25 25 0 20 -5 25 -25 25
-20 0 -25 5 -25 25 0 20 -5 25 -25 25 -20 0 -25 5 -25 25 0 20 -5 25 -25 25
-20 0 -25 5 -25 25 0 20 -5 25 -25 25 -20 0 -25 5 -25 25 0 20 -5 25 -25 25
-23 0 -25 3 -25 50 0 47 -2 50 -25 50 -20 0 -25 5 -25 25 0 20 -5 25 -25 25
-24 0 -25 3 -25 55 0 52 -1 55 -25 55 -24 0 -25 2 -25 75 0 73 -1 75 -25 75
-24 0 -25 2 -25 75 l0 75 -30 0 -30 0 0 355 0 355 30 0 30 0 0 100 0 100 25 0
c23 0 25 3 25 50 0 47 2 50 25 50 23 0 25 3 25 50 0 47 2 50 25 50 20 0 25 5
25 25 0 20 5 25 25 25 23 0 25 3 25 50 0 47 2 50 25 50 20 0 25 5 25 25 0 20
5 25 25 25 20 0 25 5 25 25 0 20 5 25 25 25 20 0 25 5 25 25 0 20 5 25 25 25
20 0 25 5 25 25 0 20 5 25 25 25 20 0 25 5 25 25 0 20 5 25 25 25 21 0 25 5
25 30 0 29 1 30 50 30 47 0 50 2 50 25 0 23 3 25 50 25 47 0 50 2 50 25 0 23
3 25 50 25 47 0 50 2 50 25 0 24 3 25 55 25 52 0 55 1 55 25 0 24 2 25 75 25
73 0 75 1 75 25 l0 25 325 0 325 0 0 -25z m3040 0 c0 -24 2 -25 75 -25 73 0
75 -1 75 -25 0 -23 3 -25 50 -25 47 0 50 -2 50 -25 0 -23 3 -25 50 -25 47 0
50 -2 50 -25 0 -23 3 -25 50 -25 47 0 50 -2 50 -25 0 -20 5 -25 25 -25 21 0
25 -5 25 -30 0 -25 4 -30 25 -30 20 0 25 -5 25 -25 0 -20 5 -25 25 -25 20 0
25 -5 25 -25 0 -20 5 -25 25 -25 20 0 25 -5 25 -25 0 -20 5 -25 25 -25 20 0
25 -5 25 -25 0 -21 5 -25 30 -25 25 0 30 -4 30 -25 0 -20 5 -25 25 -25 20 0
25 -5 25 -25 0 -20 5 -25 25 -25 23 0 25 -3 25 -50 0 -47 2 -50 25 -50 23 0
25 -3 25 -50 0 -47 2 -50 25 -50 24 0 25 -2 25 -75 0 -73 1 -75 25 -75 l25 0
0 -100 0 -100 25 0 25 0 0 -205 0 -205 -1115 0 -1115 0 0 -125 0 -125 30 0
c29 0 30 -1 30 -50 0 -47 2 -50 25 -50 20 0 25 -5 25 -25 0 -20 5 -25 25 -25
23 0 25 -3 25 -50 0 -47 2 -50 25 -50 20 0 25 -5 25 -25 0 -20 5 -25 25 -25
20 0 25 -5 25 -25 0 -23 3 -25 50 -25 49 0 50 -1 50 -30 0 -29 1 -30 50 -30
47 0 50 -2 50 -25 0 -24 2 -25 75 -25 73 0 75 -1 75 -25 l0 -25 150 0 150 0 0
25 0 25 105 0 105 0 0 25 c0 23 3 25 50 25 49 0 50 1 50 30 0 25 4 30 25 30
20 0 25 5 25 25 0 20 5 25 25 25 20 0 25 5 25 25 0 20 5 25 25 25 20 0 25 5
25 25 0 24 2 25 75 25 73 0 75 1 75 25 0 24 2 25 75 25 73 0 75 -1 75 -25 0
-23 3 -25 50 -25 47 0 50 -2 50 -25 0 -20 5 -25 25 -25 20 0 25 -5 25 -25 0
-20 5 -25 25 -25 l25 0 0 -130 0 -130 -25 0 c-20 0 -25 -5 -25 -25 0 -20 -5
-25 -25 -25 -20 0 -25 -5 -25 -25 0 -20 -5 -25 -25 -25 -20 0 -25 -5 -25 -25
0 -20 -5 -25 -25 -25 -20 0 -25 -5 -25 -25 0 -23 -3 -25 -50 -25 -47 0 -50 -2
-50 -25 0 -20 -5 -25 -25 -25 -20 0 -25 -5 -25 -25 0 -23 -3 -25 -50 -25 -47
0 -50 -2 -50 -25 0 -23 -3 -25 -50 -25 -47 0 -50 -2 -50 -25 l0 -25 -100 0
-100 0 0 -25 0 -25 -330 0 -330 0 0 25 c0 24 -2 25 -75 25 -73 0 -75 1 -75 25
0 23 -3 25 -50 25 -47 0 -50 2 -50 25 0 23 -3 25 -50 25 -47 0 -50 2 -50 25 0
24 -3 25 -55 25 -52 0 -55 1 -55 25 0 20 -5 25 -25 25 -20 0 -25 5 -25 25 0
23 -3 25 -50 25 -47 0 -50 2 -50 25 0 20 -5 25 -25 25 -20 0 -25 5 -25 25 0
20 -5 25 -25 25 -20 0 -25 5 -25 25 0 20 -5 25 -25 25 -23 0 -25 3 -25 50 0
47 -2 50 -25 50 -20 0 -25 5 -25 25 0 20 -5 25 -25 25 -21 0 -25 5 -25 30 0
25 -4 30 -25 30 -23 0 -25 3 -25 50 0 47 -2 50 -25 50 -24 0 -25 2 -25 75 0
73 -1 75 -25 75 -24 0 -25 2 -25 75 0 73 -1 75 -25 75 l-25 0 0 355 0 355 25
0 c24 0 25 2 25 75 0 73 1 75 25 75 24 0 25 2 25 75 0 73 1 75 25 75 23 0 25
3 25 50 0 47 2 50 25 50 20 0 25 5 25 25 0 20 5 25 25 25 20 0 25 5 25 25 0
20 5 25 25 25 23 0 25 3 25 50 0 47 2 50 25 50 20 0 25 5 25 25 0 20 5 25 25
25 20 0 25 5 25 25 0 20 5 25 25 25 20 0 25 5 25 25 0 20 5 25 25 25 21 0 25
5 25 30 0 29 1 30 50 30 47 0 50 2 50 25 0 24 3 25 55 25 52 0 55 1 55 25 0
23 3 25 50 25 47 0 50 2 50 25 0 23 3 25 50 25 47 0 50 2 50 25 0 24 2 25 75
25 73 0 75 1 75 25 l0 25 355 0 355 0 0 -25z m-9560 -50 c0 -20 5 -25 25 -25
20 0 25 -5 25 -25 0 -20 5 -25 25 -25 l25 0 0 -155 0 -155 -25 0 c-20 0 -25
-5 -25 -25 0 -20 -5 -25 -25 -25 -20 0 -25 -5 -25 -25 l0 -25 -325 0 -325 0 0
-25 c0 -21 -5 -25 -30 -25 l-30 0 0 -1060 0 -1060 -25 0 c-20 0 -25 -5 -25
-25 0 -23 -3 -25 -50 -25 -47 0 -50 -2 -50 -25 l0 -25 -100 0 -100 0 0 25 c0
23 -3 25 -50 25 -47 0 -50 2 -50 25 0 20 -5 25 -25 25 l-25 0 0 1060 0 1060
-25 0 c-20 0 -25 5 -25 25 l0 25 -355 0 -355 0 0 25 c0 20 -5 25 -25 25 -20 0
-25 5 -25 25 0 20 -5 25 -25 25 l-25 0 0 155 0 155 25 0 c20 0 25 5 25 25 0
20 5 25 25 25 20 0 25 5 25 25 l0 25 985 0 985 0 0 -25z m760 -3390 c0 -23 3
-25 50 -25 47 0 50 -2 50 -25 0 -23 3 -25 50 -25 47 0 50 -2 50 -25 0 -20 5
-25 25 -25 23 0 25 -3 25 -50 0 -47 2 -50 25 -50 20 0 25 -5 25 -25 0 -20 5
-25 25 -25 20 0 25 -5 25 -25 0 -21 5 -25 30 -25 25 0 30 -4 30 -25 0 -20 5
-25 25 -25 20 0 25 -5 25 -25 0 -23 3 -25 50 -25 47 0 50 -2 50 -25 0 -20 5
-25 25 -25 20 0 25 -5 25 -25 0 -23 3 -25 50 -25 47 0 50 -2 50 -25 0 -23 3
-25 50 -25 47 0 50 -2 50 -25 0 -23 3 -25 50 -25 49 0 50 -1 50 -30 0 -29 1
-30 50 -30 47 0 50 -2 50 -25 l0 -25 100 0 100 0 0 -25 0 -25 305 0 305 0 0
25 0 25 100 0 100 0 0 25 c0 23 3 25 50 25 49 0 50 1 50 30 l0 30 80 0 c79 0
80 0 80 25 0 23 3 25 50 25 47 0 50 2 50 25 0 20 5 25 25 25 20 0 25 5 25 25
0 23 3 25 50 25 47 0 50 2 50 25 0 20 5 25 25 25 20 0 25 5 25 25 0 20 5 25
25 25 20 0 25 5 25 25 0 20 5 25 25 25 20 0 25 5 25 25 0 20 5 25 25 25 20 0
25 5 25 25 0 20 5 25 25 25 20 0 25 5 25 25 0 20 5 25 25 25 23 0 25 3 25 50
l0 50 50 0 c47 0 50 2 50 25 0 20 5 25 25 25 20 0 25 5 25 25 l0 25 155 0 155
0 0 -25 c0 -20 5 -25 25 -25 20 0 25 -5 25 -25 0 -20 5 -25 25 -25 l25 0 0
-150 0 -150 -25 0 c-23 0 -25 -3 -25 -50 0 -47 -2 -50 -25 -50 -20 0 -25 -5
-25 -25 0 -20 -5 -25 -25 -25 -20 0 -25 -5 -25 -25 0 -20 -5 -25 -25 -25 -24
0 -25 -3 -25 -55 0 -52 -1 -55 -25 -55 -20 0 -25 -5 -25 -25 0 -24 -3 -25 -55
-25 -52 0 -55 -1 -55 -25 0 -20 -5 -25 -25 -25 -20 0 -25 -5 -25 -25 0 -20 -5
-25 -25 -25 -20 0 -25 -5 -25 -25 0 -20 -5 -25 -25 -25 -20 0 -25 -5 -25 -25
0 -20 -5 -25 -25 -25 -20 0 -25 -5 -25 -25 0 -23 -3 -25 -50 -25 -47 0 -50 -2
-50 -25 0 -20 -5 -25 -25 -25 -20 0 -25 -5 -25 -25 0 -23 -3 -25 -50 -25 -47
0 -50 -2 -50 -25 0 -23 -3 -25 -50 -25 -47 0 -50 -2 -50 -25 0 -24 -2 -25 -75
-25 -73 0 -75 -1 -75 -25 0 -23 -3 -25 -50 -25 -47 0 -50 -2 -50 -25 l0 -25
-105 0 -105 0 0 -25 0 -25 -150 0 -150 0 0 -25 0 -25 -200 0 -200 0 0 25 0 25
-155 0 -155 0 0 25 c0 24 -2 25 -75 25 -73 0 -75 1 -75 25 0 24 -2 25 -75 25
-73 0 -75 1 -75 25 0 23 -3 25 -50 25 -47 0 -50 2 -50 25 0 23 -3 25 -50 25
-47 0 -50 2 -50 25 0 23 -3 25 -50 25 -47 0 -50 2 -50 25 0 24 -3 25 -55 25
-52 0 -55 1 -55 25 0 20 -5 25 -25 25 -20 0 -25 5 -25 25 0 23 -3 25 -50 25
-47 0 -50 2 -50 25 0 20 -5 25 -25 25 -20 0 -25 5 -25 25 0 20 -5 25 -25 25
-20 0 -25 5 -25 25 0 20 -5 25 -25 25 -20 0 -25 5 -25 25 0 20 -5 25 -25 25
-20 0 -25 5 -25 25 0 20 -5 25 -25 25 -21 0 -25 5 -25 30 0 25 -4 30 -25 30
-20 0 -25 5 -25 25 0 20 -5 25 -25 25 -20 0 -25 5 -25 25 0 20 -5 25 -25 25
-20 0 -25 5 -25 25 0 20 -5 25 -25 25 -23 0 -25 3 -25 50 0 47 -2 50 -25 50
-23 0 -25 3 -25 50 0 47 -2 50 -25 50 -23 0 -25 3 -25 50 0 47 2 50 25 50 23
0 25 3 25 50 0 47 2 50 25 50 20 0 25 5 25 25 0 20 5 25 25 25 20 0 25 5 25
25 l0 25 125 0 125 0 0 -25z"/>
<path d="M11910 4935 c0 -24 -2 -25 -75 -25 -73 0 -75 -1 -75 -25 0 -20 -5
-25 -25 -25 -20 0 -25 -5 -25 -25 0 -23 -3 -25 -50 -25 -47 0 -50 -2 -50 -25
0 -20 -5 -25 -25 -25 -20 0 -25 -5 -25 -25 0 -20 -5 -25 -25 -25 -20 0 -25 -5
-25 -25 0 -20 -5 -25 -25 -25 -23 0 -25 -3 -25 -50 0 -47 -2 -50 -25 -50 -23
0 -25 -3 -25 -50 0 -49 -1 -50 -30 -50 l-30 0 0 -75 0 -75 760 0 760 0 0 100
0 100 -25 0 c-23 0 -25 3 -25 50 0 47 -2 50 -25 50 -20 0 -25 5 -25 25 0 20
-5 25 -25 25 -20 0 -25 5 -25 25 0 20 -5 25 -25 25 -20 0 -25 5 -25 25 0 20
-5 25 -25 25 -20 0 -25 5 -25 25 0 20 -5 25 -25 25 -20 0 -25 5 -25 25 0 23
-3 25 -50 25 -47 0 -50 2 -50 25 0 24 -2 25 -75 25 -73 0 -75 1 -75 25 l0 25
-205 0 -205 0 0 -25z"/>
</g>
</svg>
