<?xml version="1.0" standalone="no"?>
<!DOCTYPE svg PUBLIC "-//W3C//DTD SVG 20010904//EN"
 "http://www.w3.org/TR/2001/REC-SVG-20010904/DTD/svg10.dtd">
<svg version="1.0" xmlns="http://www.w3.org/2000/svg"
 width="256.000000pt" height="265.000000pt" viewBox="0 0 256.000000 265.000000"
 preserveAspectRatio="xMidYMid meet">

<g transform="translate(0.000000,265.000000) scale(0.100000,-0.100000)"
fill="#000000" stroke="none">
<path d="M1110 2490 c-178 -30 -339 -94 -482 -192 -84 -57 -232 -207 -289
-293 -129 -194 -187 -368 -196 -585 -13 -299 63 -551 234 -775 177 -231 430
-383 727 -434 147 -26 219 -26 367 -2 359 60 645 257 829 571 218 371 192 875
-63 1239 -94 133 -267 285 -403 354 l-50 25 -58 -23 c-121 -49 -207 -128 -264
-243 -30 -63 -36 -84 -36 -144 l-1 -70 70 -22 c280 -90 435 -292 435 -566 0
-280 -184 -525 -455 -606 -83 -25 -249 -25 -330 0 -186 57 -332 180 -416 351
-60 123 -74 187 -73 350 1 122 4 151 27 228 99 323 332 564 665 686 115 42
206 63 312 70 l95 6 -85 29 c-103 35 -290 66 -385 65 -38 0 -117 -9 -175 -19z"/>
</g>
</svg>
